<?xml version="1.0" encoding="UTF-8"?>
<!DOCTYPE svg PUBLIC "-//W3C//DTD SVG 1.1//EN" "http://www.w3.org/Graphics/SVG/1.1/DTD/svg11.dtd">
<svg xmlns="http://www.w3.org/2000/svg" version="1.1" width="212px" height="212px" style="shape-rendering:geometricPrecision; text-rendering:geometricPrecision; image-rendering:optimizeQuality; fill-rule:evenodd; clip-rule:evenodd" xmlns:xlink="http://www.w3.org/1999/xlink">
<g><path style="opacity:1" fill="#ebeef3" d="M 103.5,128.5 C 98.4112,130.89 93.5778,132.89 89,134.5C 84.9366,136.624 80.9366,139.624 77,143.5C 75.1352,146.267 73.9686,149.101 73.5,152C 74.8333,154.333 74.8333,156.667 73.5,159C 73.7591,160.261 74.4258,161.261 75.5,162C 74.1854,163.395 74.5188,164.395 76.5,165C 69.4157,164.641 62.7491,162.641 56.5,159C 52.3596,156.05 50.6929,152.05 51.5,147C 51.6667,144.833 51.8333,142.667 52,140.5C 54.7969,136.701 57.9636,133.201 61.5,130C 69.6089,124.612 78.2756,120.279 87.5,117C 91.5765,113.861 92.4099,110.028 90,105.5C 75.6631,89.7409 72.6631,72.0743 81,52.5C 90.6043,40.4963 102.771,36.9963 117.5,42C 129.064,48.1121 135.064,57.7788 135.5,71C 134.754,84.242 129.921,95.742 121,105.5C 120.798,107.256 120.298,108.922 119.5,110.5C 112.374,114.957 107.04,120.957 103.5,128.5 Z"/></g>
<g><path style="opacity:1" fill="#e9ecf1" d="M 195.5,86.5 C 190.518,86.4825 187.185,88.8159 185.5,93.5C 184.621,95.2297 183.288,96.563 181.5,97.5C 178.063,97.2581 175.063,96.0915 172.5,94C 173.337,92.9887 173.67,91.8221 173.5,90.5C 174.774,89.8106 174.774,88.9772 173.5,88C 174.667,86.8333 175.833,85.6667 177,84.5C 178.131,85.6039 178.965,85.2705 179.5,83.5C 183.197,82.5632 186.697,81.2298 190,79.5C 194.323,80.222 196.157,82.5554 195.5,86.5 Z"/></g>
<g><path style="opacity:0.008" fill="#b9c0bf" d="M 195.5,86.5 C 196.833,87.1667 196.833,87.1667 195.5,86.5 Z"/></g>
<g><path style="opacity:0.012" fill="#a1a7a6" d="M 173.5,90.5 C 172.833,89.1667 172.833,89.1667 173.5,90.5 Z"/></g>
<g><path style="opacity:0.008" fill="#b5bbbb" d="M 185.5,93.5 C 186.833,94.1667 186.833,94.1667 185.5,93.5 Z"/></g>
<g><path style="opacity:1" fill="#ebeef3" d="M 165.5,108.5 C 165.167,107.167 164.833,107.167 164.5,108.5C 163.833,108.5 163.5,108.833 163.5,109.5C 162.833,109.5 162.5,109.833 162.5,110.5C 161.5,110.833 160.833,111.5 160.5,112.5C 156.808,115.862 153.141,119.195 149.5,122.5C 148.833,122.5 148.5,122.833 148.5,123.5C 147.833,123.5 147.5,123.833 147.5,124.5C 146.833,124.5 146.5,124.833 146.5,125.5C 145.833,125.5 145.5,125.833 145.5,126.5C 141.806,129.527 138.473,132.86 135.5,136.5C 135.167,135.167 134.833,135.167 134.5,136.5C 133.833,136.5 133.5,136.833 133.5,137.5C 132.833,137.5 132.5,137.833 132.5,138.5C 131.833,138.5 131.5,138.833 131.5,139.5C 130.833,139.5 130.5,139.833 130.5,140.5C 129.167,140.833 129.167,141.167 130.5,141.5C 128.888,143.963 129.388,145.963 132,147.5C 132.333,147.167 132.667,146.833 133,146.5C 133.519,147.516 134.353,148.182 135.5,148.5C 137.493,147.468 139.659,146.468 142,145.5C 143.858,148.306 143.358,150.806 140.5,153C 135.071,154.911 130.238,157.744 126,161.5C 124.632,162.993 124.465,164.493 125.5,166C 123.355,169.1 121.021,172.6 118.5,176.5C 117.167,176.833 117.167,177.167 118.5,177.5C 117.833,178.833 116.833,179.833 115.5,180.5C 115.167,179.167 114.833,179.167 114.5,180.5C 108.083,183.565 102.083,182.898 96.5,178.5C 96.1667,177.167 95.8333,177.167 95.5,178.5C 92.9225,176.045 90.5892,173.378 88.5,170.5C 84.5391,166.248 81.8724,161.248 80.5,155.5C 81.0767,151.179 83.0767,147.679 86.5,145C 93.5191,141.183 100.019,138.35 106,136.5C 110.763,131.578 114.93,126.244 118.5,120.5C 120.173,119.657 121.34,118.324 122,116.5C 122.414,116.957 122.914,117.291 123.5,117.5C 124.532,115.96 125.865,115.46 127.5,116C 127.167,116.333 126.833,116.667 126.5,117C 127.308,117.308 127.975,117.808 128.5,118.5C 126.318,120.869 124.651,123.535 123.5,126.5C 123.802,129.451 125.302,131.451 128,132.5C 142.354,120.143 156.687,107.81 171,95.5C 172.167,96.6667 173.333,97.8333 174.5,99C 171.268,102.062 168.268,105.229 165.5,108.5 Z"/></g>
<g><path style="opacity:0.004" fill="#bac0c0" d="M 164.5,108.5 C 164.833,108.5 165.167,108.5 165.5,108.5C 165.315,109.17 164.981,109.17 164.5,108.5 Z"/></g>
<g><path style="opacity:0.008" fill="#b3b9b9" d="M 163.5,109.5 C 163.833,109.5 164.167,109.5 164.5,109.5C 164.315,110.17 163.981,110.17 163.5,109.5 Z"/></g>
<g><path style="opacity:0.004" fill="#bbc1c1" d="M 162.5,110.5 C 162.833,110.5 163.167,110.5 163.5,110.5C 163.315,111.17 162.981,111.17 162.5,110.5 Z"/></g>
<g><path style="opacity:1" fill="#ebeff3" d="M 160.5,112.5 C 161.833,113.167 161.833,113.167 160.5,112.5 Z"/></g>
<g><path style="opacity:1" fill="#ebeff3" d="M 118.5,120.5 C 117.833,119.167 117.833,119.167 118.5,120.5 Z"/></g>
<g><path style="opacity:0.012" fill="#a3a8a8" d="M 149.5,122.5 C 150.833,123.167 150.833,123.167 149.5,122.5 Z"/></g>
<g><path style="opacity:0.008" fill="#b4baba" d="M 148.5,123.5 C 148.833,123.5 149.167,123.5 149.5,123.5C 149.315,124.17 148.981,124.17 148.5,123.5 Z"/></g>
<g><path style="opacity:0.008" fill="#b3b9b8" d="M 147.5,124.5 C 147.833,124.5 148.167,124.5 148.5,124.5C 148.315,125.17 147.981,125.17 147.5,124.5 Z"/></g>
<g><path style="opacity:0.008" fill="#b8bebe" d="M 146.5,125.5 C 146.833,125.5 147.167,125.5 147.5,125.5C 147.315,126.17 146.981,126.17 146.5,125.5 Z"/></g>
<g><path style="opacity:0.004" fill="#bdc3c3" d="M 145.5,126.5 C 145.833,126.5 146.167,126.5 146.5,126.5C 146.315,127.17 145.981,127.17 145.5,126.5 Z"/></g>
<g><path style="opacity:0.004" fill="#bac0c0" d="M 103.5,128.5 C 104.833,129.167 104.833,129.167 103.5,128.5 Z"/></g>
<g><path style="opacity:1" fill="#ebeef3" d="M 145.5,158.5 C 147.451,157.284 148.951,155.618 150,153.5C 150.617,152.551 150.451,151.718 149.5,151C 152.167,149 152.167,147 149.5,145C 150.451,144.282 150.617,143.449 150,142.5C 148.549,140.536 146.716,139.203 144.5,138.5C 146.461,136.037 148.628,133.703 151,131.5C 159.072,136.718 161.739,144.051 159,153.5C 157.878,155.624 156.378,157.457 154.5,159C 147.966,162.847 140.966,164.847 133.5,165C 138.01,163.582 142.01,161.415 145.5,158.5 Z"/></g>
<g><path style="opacity:0.012" fill="#a5abab" d="M 134.5,136.5 C 134.833,136.5 135.167,136.5 135.5,136.5C 135.315,137.17 134.981,137.17 134.5,136.5 Z"/></g>
<g><path style="opacity:0.008" fill="#b2b8b8" d="M 133.5,137.5 C 133.833,137.5 134.167,137.5 134.5,137.5C 134.315,138.17 133.981,138.17 133.5,137.5 Z"/></g>
<g><path style="opacity:0.012" fill="#a9aeae" d="M 132.5,138.5 C 132.833,138.5 133.167,138.5 133.5,138.5C 133.315,139.17 132.981,139.17 132.5,138.5 Z"/></g>
<g><path style="opacity:0.004" fill="#a9aeae" d="M 144.5,138.5 C 143.833,139.167 143.833,139.167 144.5,138.5 Z"/></g>
<g><path style="opacity:0.008" fill="#b2b8b8" d="M 131.5,139.5 C 131.833,139.5 132.167,139.5 132.5,139.5C 132.315,140.17 131.981,140.17 131.5,139.5 Z"/></g>
<g><path style="opacity:0.004" fill="#bfc6c5" d="M 130.5,140.5 C 130.833,140.5 131.167,140.5 131.5,140.5C 131.315,141.17 130.981,141.17 130.5,140.5 Z"/></g>
<g><path style="opacity:0.004" fill="#bac0c0" d="M 145.5,158.5 C 144.833,157.167 144.833,157.167 145.5,158.5 Z"/></g>
<g><path style="opacity:0.008" fill="#b2b8b8" d="M 88.5,170.5 C 87.8333,171.167 87.8333,171.167 88.5,170.5 Z"/></g>
<g><path style="opacity:0.008" fill="#b3b9b9" d="M 118.5,176.5 C 119.833,177.167 119.833,177.167 118.5,176.5 Z"/></g>
<g><path style="opacity:0.012" fill="#aeb3b3" d="M 95.5,178.5 C 95.8333,178.5 96.1667,178.5 96.5,178.5C 96.3147,179.17 95.9813,179.17 95.5,178.5 Z"/></g>
<g><path style="opacity:0.008" fill="#b1b7b7" d="M 114.5,180.5 C 114.833,180.5 115.167,180.5 115.5,180.5C 115.315,181.17 114.981,181.17 114.5,180.5 Z"/></g>
</svg>
